#tb 0: 1/100
0,          0,          0,        1,      552, 0x47602c6c
0,         10,         10,        1,      296, 0xb4fe95a2
0,         20,         20,        1,      457, 0x094cddbc
0,         30,         30,        1,      561, 0xde1e1eda
0,         40,         40,        1,      736, 0x214a727b
0,         50,         50,        1,      879, 0xcb3ece91
0,         60,         60,        1,      988, 0x6d73fdd3
0,         70,         70,        1,     1034, 0xd7561a6f
0,         80,         80,        1,     1266, 0x42f383c2
0,         90,         90,        1,     1262, 0xec807046
0,        100,        100,        1,      179, 0x0690541c
0,        110,        110,        1,     1650, 0xbe403782
0,        120,        120,        1,     1789, 0xa8869efa
0,        130,        130,        1,     1731, 0xbcfa7a2a
0,        140,        140,        1,     1947, 0x81faf4ae
0,        150,        150,        1,     2015, 0x9241f8ff
0,        160,        160,        1,     2256, 0x5979832b
0,        170,        170,        1,     2420, 0x4fded762
0,        180,        180,        1,     2504, 0x329d0104
0,        190,        190,        1,     2604, 0xee6707e3
0,        200,        200,        1,     2805, 0x80e998e5
0,        210,        210,        1,     2876, 0x71e3a8c1
0,        220,        220,        1,     2980, 0x77e5d327
0,        230,        230,        1,     3096, 0x31dc20bc
0,        240,        240,        1,     3210, 0x17073031
0,        250,        250,        1,     3299, 0x79e57fe8
0,        260,        260,        1,     3396, 0x4f38c1ec
0,        270,        270,        1,     3496, 0x0a0ccee2
0,        280,        280,        1,     3703, 0x5de13b37
0,        290,        290,        1,     3878, 0x201baf7d
0,        300,        300,        1,     4095, 0x58980971
0,        310,        310,        1,     4152, 0x8dfa0b07
0,        320,        320,        1,     4342, 0x4b71a904
0,        330,        330,        1,     4514, 0xfb9be5ce
0,        340,        340,        1,     4609, 0x2b043300
0,        350,        350,        1,     4781, 0xc969b3a1
0,        360,        360,        1,     4754, 0x573aa51f
0,        370,        370,        1,     5011, 0xcf051a34
0,        380,        380,        1,     5094, 0xdb304d4e
0,        390,        390,        1,     5207, 0x12b2b281
0,        400,        400,        1,     2346, 0x98f8d488
0,        410,        410,        1,     1451, 0xfc50e5b8
0,        420,        420,        1,      272, 0x7ffd8015
0,        430,        430,        1,     1422, 0xc89fd0b6
0,        440,        440,        1,      314, 0x50f299f8
0,        450,        450,        1,      188, 0x991f52da
0,        460,        460,        1,     5429, 0x2e410a88
0,        470,        470,        1,     6017, 0x10b75eb8
0,        480,        480,        1,     6120, 0x3271939c
0,        490,        490,        1,     6350, 0x25a1e14f
0,        500,        500,        1,     6573, 0x8e7f78be
0,        510,        510,        1,     6640, 0x4b906975
0,        520,        520,        1,     6741, 0x09b4b2d2
0,        530,        530,        1,     6976, 0xd71e0451
0,        540,        540,        1,     7081, 0x3b3d5d96
0,        550,        550,        1,     7190, 0x43e08b08
0,        560,        560,        1,     7303, 0x789db394
0,        570,        570,        1,     7107, 0xfd973662
0,        580,        580,        1,     7401, 0xf22cefc1
0,        590,        590,        1,     7529, 0xd055268f
0,        600,        600,        1,     7642, 0x6e8c4e4e
0,        610,        610,        1,     7702, 0x04df7a90
0,        620,        620,        1,     7809, 0xbdaa746e
0,        630,        630,        1,     7846, 0x0c76be01
0,        640,        640,        1,     7924, 0x020bdae0
0,        650,        650,        1,     8189, 0xb5ae5872
0,        660,        660,        1,     8358, 0x41588a80
0,        670,        670,        1,     8457, 0x17aec618
0,        680,        680,        1,     8448, 0x6fe4d014
0,        690,        690,        1,     8685, 0x271b29da
0,        700,        700,        1,     8703, 0x2b1d543f
0,        710,        710,        1,     8782, 0x3ad37896
0,        720,        720,        1,     8839, 0x3603942b
0,        730,        730,        1,     8453, 0xeb28be8b
0,        740,        740,        1,     8641, 0x35dd24cf
0,        750,        750,        1,     9203, 0x471e37ed
0,        760,        760,        1,     9191, 0x94b638e6
0,        770,        770,        1,     9259, 0xbc0b58ee
0,        780,        780,        1,     8905, 0x1e9e9bbc
0,        790,        790,        1,     9171, 0x053e06be
0,        800,        800,        1,     9857, 0x2778480f
0,        810,        810,        1,     9989, 0x83949a91
0,        820,        820,        1,    10005, 0x90a8d339
0,        830,        830,        1,     9614, 0xe0481ebe
0,        840,        840,        1,     9777, 0x6ed15fe2
0,        850,        850,        1,    10364, 0x7c76a7c9
0,        860,        860,        1,    10496, 0x0dddbbc8
0,        870,        870,        1,    10541, 0x742aec5b
0,        880,        880,        1,    10185, 0x4f8203d2
0,        890,        890,        1,    10309, 0x0802342e
0,        900,        900,        1,    10947, 0x2be867d3
0,        910,        910,        1,    11045, 0xc6fdd553
0,        920,        920,        1,    11054, 0x712a0b68
0,        930,        930,        1,    10637, 0x11f61342
0,        940,        940,        1,    10673, 0x2ea0e35b
0,        950,        950,        1,    11495, 0xdc4daed5
0,        960,        960,        1,    11710, 0xb0982c2f
0,        970,        970,        1,    11853, 0xaba66c60
0,        980,        980,        1,    11633, 0x8dbaf9a5
0,        990,        990,        1,    12088, 0x77c6c019
0,       1000,       1000,        1,    12214, 0x2258da24
0,       1010,       1010,        1,    12364, 0xa5826f91
0,       1020,       1020,        1,    12390, 0xf9ca337a
0,       1030,       1030,        1,    12634, 0x7f24ef77
0,       1040,       1040,        1,    12783, 0x80a3ef7b
0,       1050,       1050,        1,    12935, 0xf646bce6
0,       1060,       1060,        1,    13151, 0xa3fddf67
0,       1070,       1070,        1,    13297, 0x5194345c
0,       1080,       1080,        1,    13398, 0xbacc92df
0,       1090,       1090,        1,    13593, 0xece81394
0,       1100,       1100,        1,    13650, 0x19a50f4c
0,       1110,       1110,        1,    13861, 0x3f0a3be4
0,       1120,       1120,        1,    14030, 0x0a497635
0,       1130,       1130,        1,    14304, 0x52ea0416
0,       1140,       1140,        1,    14439, 0x8e9f84ad
0,       1150,       1150,        1,    14572, 0xf0a6a956
0,       1160,       1160,        1,    14705, 0x439b16df
0,       1170,       1170,        1,    14815, 0xacdc2f29
0,       1180,       1180,        1,    14915, 0x59b75de8
0,       1190,       1190,        1,    15011, 0xb1ccaf19
0,       1200,       1200,        1,    15166, 0x5096ef46
0,       1210,       1210,        1,    15348, 0xab4a2cd9
0,       1220,       1220,        1,    15385, 0x03981120
0,       1230,       1230,        1,    15535, 0x25d4bd16
0,       1240,       1240,        1,    15692, 0x5ab9bbb1
0,       1250,       1250,        1,    15707, 0x1be5ffc8
0,       1260,       1260,        1,    15942, 0x267748e2
0,       1270,       1270,        1,    16080, 0x76a14ebb
0,       1280,       1280,        1,    16187, 0xded89de8
0,       1290,       1290,        1,    16276, 0x861f0195
0,       1300,       1300,        1,    16385, 0x7b2444b3
0,       1310,       1310,        1,    16607, 0xcea35a1b
0,       1320,       1320,        1,    16708, 0xdf7df945
0,       1330,       1330,        1,    16834, 0xbb405f28
0,       1340,       1340,        1,    16908, 0x4f597965
0,       1350,       1350,        1,    17031, 0x90ab6981
0,       1360,       1360,        1,    17162, 0x63288c81
0,       1370,       1370,        1,    17433, 0x8df076db
0,       1380,       1380,        1,    17641, 0xf3c092bb
0,       1390,       1390,        1,    17918, 0x4b52018c
0,       1400,       1400,        1,    18022, 0xce5043aa
0,       1410,       1410,        1,    18123, 0x56de4a96
0,       1420,       1420,        1,    18227, 0xf4937b23
0,       1430,       1430,        1,    18290, 0x6adeb2c6
0,       1440,       1440,        1,    18455, 0x6960cccc
0,       1450,       1450,        1,    18733, 0x98ac92d4
0,       1460,       1460,        1,    18798, 0xb0afda64
0,       1470,       1470,        1,    18924, 0xd4ddfcf9
0,       1480,       1480,        1,    18962, 0x6ba9fa09
0,       1490,       1490,        1,    19148, 0x9ab766f4
0,       1500,       1500,        1,    19368, 0xe2d9c9ff
0,       1510,       1510,        1,    19442, 0xd8e9dd47
0,       1520,       1520,        1,    19543, 0x3185075e
0,       1530,       1530,        1,    19609, 0xad8619eb
0,       1540,       1540,        1,    19710, 0x4e1858cc
0,       1550,       1550,        1,    19829, 0x8e2ddd1a
0,       1560,       1560,        1,    19949, 0xa2d664cb
0,       1570,       1570,        1,    20048, 0xd87bf37e
0,       1580,       1580,        1,    20144, 0x032b7022
0,       1590,       1590,        1,    20207, 0x5fbd91f6
0,       1600,       1600,        1,    20362, 0x6e2587d9
0,       1610,       1610,        1,    20575, 0xbdb909ec
0,       1620,       1620,        1,    20687, 0xfa5d47d8
0,       1630,       1630,        1,    20765, 0xaeb7be00
0,       1640,       1640,        1,    20877, 0xdc294c19
0,       1650,       1650,        1,    21163, 0x39d218cf
0,       1660,       1660,        1,    21241, 0xab766ba8
0,       1670,       1670,        1,    21347, 0xa1516a9f
0,       1680,       1680,        1,    21443, 0xff56b01c
0,       1690,       1690,        1,    21612, 0xdbe2fe6e
0,       1700,       1700,        1,    21675, 0x9ff6f253
0,       1710,       1710,        1,    21820, 0x313a327c
0,       1720,       1720,        1,    21938, 0x3bf9ea0d
